<?xml version="1.0" encoding="utf-8"?>
<!-- Generator: Adobe Illustrator 21.1.0, SVG Export Plug-In . SVG Version: 6.00 Build 0)  -->
<svg version="1.1" id="Layer_1" xmlns="http://www.w3.org/2000/svg" xmlns:xlink="http://www.w3.org/1999/xlink" x="0px" y="0px"
	 viewBox="0 0 670.2 657" style="enable-background:new 0 0 670.2 657;" xml:space="preserve">
<style type="text/css">
	.st0{fill:#FFFFFF;}
</style>
<title>config</title>
<g id="Layer_2">
	<g id="config">
		<path class="st0" d="M597.4,383.9l-18.8-3.1c-5.9-1-10.3-5.9-10.6-11.9v-0.8c-0.3-6.1,3.8-11.5,9.8-12.9l18.6-4.4
			c6.8-1.6,11-8.3,9.5-15.1v-0.1l-5.7-24.2c-1.6-6.8-8.3-11-15.1-9.5H585l-18.6,4.4c-5.9,1.4-11.9-1.5-14.4-7l0,0
			c-2.6-5.5-0.9-12.1,4.1-15.6l15.6-11.2c5.7-4,7-11.9,3-17.6c0,0,0,0-0.1-0.1L560,234.7c-4-5.7-11.9-7-17.6-3c0,0,0,0-0.1,0.1
			l-15.6,11.1c-4.9,3.5-11.5,3.1-15.9-1l-0.6-0.6c-4.5-4.1-5.4-10.9-2.2-16l10.1-16.2c3.7-5.9,1.9-13.7-4-17.4c0,0,0,0-0.1,0
			l-21.1-13.1c-5.9-3.7-13.7-1.9-17.4,4c0,0,0,0,0,0.1l-10.1,16.2c-3.2,5.1-9.4,7.3-15.1,5.2l0,0c-5.7-2.1-9.1-7.9-8.1-13.9
			l3.1-18.8c1.2-6.9-3.5-13.4-10.3-14.6h-0.1l-24.5-4.1c-6.9-1.2-13.4,3.5-14.6,10.3v0.1l-3.1,18.8c-1,5.9-5.9,10.3-11.9,10.6H380
			c-6.1,0.3-11.5-3.8-12.9-9.8l-4.6-18.4c-1.6-6.8-8.3-11-15.1-9.5h-0.1l-24.2,5.7c-6.8,1.6-11,8.3-9.5,15.1v0.1l4.4,18.6
			c1.4,5.9-1.5,11.9-7,14.4l0,0c-5.5,2.6-12.1,0.9-15.6-4.1L284.3,189c-4-5.7-11.9-7-17.6-3c0,0,0,0-0.1,0.1l-20.2,14.4
			c-5.7,4-7,11.9-3,17.6c0,0,0,0,0.1,0.1l11.1,15.6c3.5,4.9,3.1,11.5-1,15.9l-0.6,0.6c-4.1,4.5-10.9,5.4-16,2.2l-16-10.2
			c-5.9-3.7-13.7-1.9-17.4,4c0,0,0,0,0,0.1l-13.1,21.1c-3.7,5.9-1.9,13.7,4,17.4c0,0,0,0,0.1,0l16.2,10.1c5.1,3.2,7.3,9.4,5.2,15.1
			l0,0c-2.1,5.7-7.9,9.1-13.9,8.1l-18.8-3.1c-6.9-1.2-13.4,3.5-14.6,10.3v0.1l-4.1,24.5c-1.2,6.9,3.4,13.4,10.3,14.6
			c0.1,0,0.2,0,0.3,0.1l18.8,3.1c5.9,1,10.3,5.9,10.6,11.9v0.8c0.3,6.1-3.8,11.5-9.8,12.9l-18.6,4.5c-6.8,1.6-11,8.3-9.5,15.1v0.1
			l5.7,24.2c1.6,6.8,8.3,11,15.1,9.5h0.1l18.6-4.4c5.9-1.4,11.9,1.5,14.4,7l0,0c2.6,5.5,0.9,12.1-4.1,15.6l-15.6,11.2
			c-5.7,4-7,11.9-3,17.6c0,0,0,0,0.1,0.1l14.4,20.2c4,5.7,11.9,7,17.6,3c0,0,0,0,0.1-0.1l15.6-11.1c4.9-3.5,11.5-3.1,15.9,1l0.6,0.6
			c4.5,4.1,5.4,10.9,2.2,16l-10,16c-3.7,5.9-1.9,13.7,4,17.4c0,0,0,0,0.1,0l21.2,13c5.9,3.7,13.7,1.9,17.4-4c0,0,0,0,0-0.1
			l10.1-16.2c3.2-5.1,9.4-7.3,15.1-5.2l0,0c5.7,2.1,9.1,7.9,8.1,13.9l-3.1,18.8c-1.2,6.9,3.5,13.4,10.3,14.6h0.1l24.5,4.1
			c6.9,1.1,13.4-3.5,14.5-10.4l0,0l3.1-18.8c1-5.9,5.9-10.3,11.9-10.6h0.8c6.1-0.3,11.5,3.8,12.9,9.8l4.4,18.6
			c1.6,6.8,8.3,11,15.1,9.5h0.1l24.2-5.7c6.8-1.6,11-8.3,9.5-15.1V573l-4.4-18.6c-1.7-6.8,2.4-13.6,9.1-15.4
			c5.1-1.3,10.5,0.7,13.5,5.1l11.2,15.6c4,5.7,11.9,7,17.6,3c0,0,0,0,0.1-0.1l20.2-14.4c5.7-4,7-11.9,3-17.6c0,0,0,0-0.1-0.1
			l-11.1-15.6c-3.5-4.9-3.1-11.5,1-15.9l0.6-0.6c4.1-4.5,10.9-5.4,16-2.2l16.2,10.1c5.9,3.7,13.7,1.9,17.4-4c0,0,0,0,0-0.1
			l13.1-21.1c3.7-5.9,1.9-13.7-4-17.4c0,0,0,0-0.1,0l-16.4-10.3c-5.1-3.2-7.3-9.4-5.2-15.1l0,0c2.1-5.7,7.9-9.1,13.9-8.1l18.8,3.1
			c6.9,1.2,13.4-3.5,14.6-10.3c0-0.1,0-0.1,0-0.2l4.1-24.5C609,391.5,604.3,385,597.4,383.9L597.4,383.9z M526.5,397.6
			c-12.8,77.4-86,129.8-163.4,116.9c-77.4-12.8-129.8-86-116.9-163.4c12.8-77.4,86-129.8,163.4-116.9
			C487,247,539.3,320.1,526.5,397.6L526.5,397.6L526.5,397.6z"/>
		<path class="st0" d="M402.5,276.4c-54.1-9-105.2,27.6-114.2,81.7s27.6,105.2,81.7,114.2s105.2-27.6,114.2-81.7l0,0
			C493.2,336.5,456.6,285.4,402.5,276.4z M433.7,382.2c-4.4,26.2-29.1,43.9-55.3,39.5s-43.9-29.1-39.5-55.3
			c4.4-26.1,29.1-43.8,55.2-39.5C420.3,331.2,438,355.9,433.7,382.2C433.7,382.1,433.7,382.1,433.7,382.2L433.7,382.2z"/>
		<circle class="st0" cx="159.9" cy="154.5" r="23"/>
		<path class="st0" d="M178.6,244.4v-6.1c0-4.9,3-9.3,7.6-11.2l4.1-1.6c4.4-1.7,9.5-0.7,12.9,2.7l4.2,4.2c4.7,4.7,12.3,4.7,16.9,0
			l0,0l9.4-9.4c4.7-4.7,4.7-12.3,0-16.9l0,0l-4.3-4.3c-3.5-3.5-4.5-8.7-2.5-13.2l1.7-4c1.9-4.4,6.2-7.2,11-7.2h6
			c6.6,0,12-5.3,12.1-11.9v-0.1V152c0-6.6-5.4-12-12-12h-6.1c-4.9,0-9.3-3-11.2-7.6l-1.6-4.1c-1.7-4.4-0.7-9.5,2.7-12.9l4.2-4.2
			c4.7-4.7,4.7-12.3,0-16.9l0,0l-9.4-9.4c-4.7-4.7-12.3-4.7-16.9,0l0,0l-4.3,4.3c-3.5,3.5-8.7,4.5-13.2,2.5l-4-1.7
			c-4.4-1.9-7.2-6.2-7.2-11v-6c0-6.6-5.4-12-12-12l0,0h-13.4c-6.6,0-12,5.4-12,12l0,0v6.1c0,4.9-3,9.3-7.6,11.2l-4.1,1.6
			c-4.4,1.7-9.5,0.7-12.9-2.7l-4.2-4.2c-4.7-4.7-12.3-4.7-16.9,0l0,0l-9.4,9.4c-4.7,4.7-4.7,12.3,0,16.9l0,0l4.2,4.3
			c3.5,3.5,4.5,8.7,2.5,13.2l-1.7,4c-1.9,4.4-6.2,7.2-11,7.2h-6c-6.6,0-12,5.4-12,12v0.1v13.4c0,6.6,5.4,12,12,12h6.1
			c4.9,0,9.3,3,11.2,7.6l1.6,4.1c1.7,4.4,0.7,9.5-2.7,12.9l-4.2,4.2c-4.7,4.7-4.7,12.3,0,16.9l0,0l9.4,9.4c4.7,4.7,12.3,4.7,16.9,0
			l0,0l4.3-4.3c3.5-3.5,8.7-4.5,13.2-2.5l4,1.7c4.4,1.9,7.2,6.2,7.2,11v6c0,6.6,5.3,12,11.9,12.1h0.1h13.4
			C173.2,256.4,178.6,251.1,178.6,244.4L178.6,244.4z M112.5,154.5c0-26.2,21.3-47.5,47.5-47.5s47.5,21.3,47.5,47.5
			S186.2,202,160,202S112.5,180.7,112.5,154.5L112.5,154.5z"/>
	</g>
</g>
</svg>
