<?xml version="1.0" encoding="utf-8"?>
<!-- Generator: Adobe Illustrator 21.1.0, SVG Export Plug-In . SVG Version: 6.00 Build 0)  -->
<svg version="1.1" id="Layer_1" xmlns="http://www.w3.org/2000/svg" xmlns:xlink="http://www.w3.org/1999/xlink" x="0px" y="0px"
	 viewBox="0 0 670.2 657" style="enable-background:new 0 0 670.2 657;" xml:space="preserve">
<style type="text/css">
	.st0{fill:#FFFFFF;}
</style>
<title>config</title>
<path class="st0" d="M320,28.5c-165.7,0-300,134.3-300,300s134.3,300,300,300s300-134.3,300-300S485.7,28.5,320,28.5z M58.6,328.5
	c0-71.9,29-136.9,75.9-184.2l331.6,401c-41.7,28.2-92,44.6-146.1,44.6C175.6,589.9,58.6,472.9,58.6,328.5z M495.2,522.4L162.4,119.9
	c43.8-33.2,98.4-52.8,157.6-52.8c144.4,0,261.4,117,261.4,261.4C581.4,405.4,548.1,474.6,495.2,522.4z"/>
</svg>
