<?xml version="1.0" encoding="UTF-8" standalone="no"?><svg xmlns:svg="http://www.w3.org/2000/svg" xmlns="http://www.w3.org/2000/svg" xmlns:xlink="http://www.w3.org/1999/xlink" version="1.0" width="243px" height="36px" viewBox="0 0 128 19" xml:space="preserve"><path fill="#ffffff" fill-opacity="0.25" d="M10.4,0V4.75H0v9.5H10.4V19L20,9.5ZM32,0V4.75H21.6v9.5H32V19l9.6-9.5ZM53.6,0V4.75H43.2v9.5H53.6V19l9.6-9.5ZM75.2,0V4.75H64.8v9.5H75.2V19l9.6-9.5ZM96.8,0V4.75H86.4v9.5H96.8V19l9.6-9.5Zm21.6,0V4.75H108v9.5h10.4V19L128,9.5Z"/><g><path fill="#ffffff" fill-opacity="0.5" d="M-52.8,0V4.75H-63.2v9.5h10.4V19l9.6-9.5Z"/><path fill="#ffffff" fill-opacity="0.75" d="M-31.2,0V4.75H-41.6v9.5h10.4V19l9.6-9.5Z"/><path fill="#ffffff" fill-opacity="1" d="M-9.6,0V4.75H-20v9.5H-9.6V19L0,9.5Z"/><animateTransform attributeName="transform" type="translate" values="20 0;41.5 0;63 0;84.5 0;106 0;127.5 0;149 0;170.5 0;192 0;" calcMode="discrete" dur="1000ms" repeatCount="indefinite"/></g></svg>
