<?xml version="1.0" encoding="utf-8"?>
<!-- Generator: Adobe Illustrator 21.1.0, SVG Export Plug-In . SVG Version: 6.00 Build 0)  -->
<svg version="1.1" id="Layer_1" xmlns="http://www.w3.org/2000/svg" xmlns:xlink="http://www.w3.org/1999/xlink" x="0px" y="0px"
	 viewBox="0 0 670.2 657" style="enable-background:new 0 0 670.2 657;" xml:space="preserve">
<style type="text/css">
	.st0{fill:#FFFFFF;}
</style>
<g>
	<circle class="st0" cx="475.3" cy="477.5" r="51.2"/>
	<path class="st0" d="M591.9,235.4H108.4c0-0.4-0.1-0.9-0.1-1.3L557.6,56.2c1.6,3.3,5.1,5.6,8.9,5.6c5.5,0,10.1-4.5,10.1-10.1
		c0-5.5-4.5-10.1-10.1-10.1c-5.5,0-10.1,4.5-10.1,10.1c0,0.3,0,0.4,0,0.6L98,219.3c-2.8-1.6-6.1-2.5-9.7-2.5
		c-10.8,0-19.6,8.6-20.1,19.3c-19.9,3.9-34.9,21.4-34.9,42.3v295.6c0,23.8,19.3,43.1,43.1,43.1h515.4c23.8,0,43.1-19.3,43.1-43.1
		V278.4C635,254.7,615.7,235.4,591.9,235.4z M589.7,325.2H277.9v-49h311.8V325.2z M78.7,344.6v-11.1h182v11.1H78.7z M78.7,325.2v-49
		h182v49H78.7z M332.7,580H89.1c-5.8,0-10.4-4.8-10.4-10.4c0-5.8,4.6-10.4,10.4-10.4h243.8c5.6,0,10.4,4.6,10.4,10.4
		C343.1,575.2,338.5,580,332.7,580z M332.7,535.4H89.1c-5.8,0-10.4-4.8-10.4-10.4c0-5.8,4.6-10.4,10.4-10.4h243.8
		c5.6,0,10.4,4.6,10.4,10.4C343.1,530.7,338.5,535.4,332.7,535.4z M332.7,490.9H89.1c-5.8,0-10.4-4.8-10.4-10.4
		c0-5.8,4.6-10.4,10.4-10.4h243.8c5.6,0,10.4,4.6,10.4,10.4C343.1,486.1,338.5,490.9,332.7,490.9z M332.7,446.3H89.1
		c-5.8,0-10.4-4.8-10.4-10.4c0-5.8,4.6-10.4,10.4-10.4h243.8c5.6,0,10.4,4.6,10.4,10.4C343.1,441.6,338.5,446.3,332.7,446.3z
		 M332.7,401.7H89.1c-5.8,0-10.4-4.8-10.4-10.4c0-5.8,4.6-10.4,10.4-10.4h243.8c5.6,0,10.4,4.6,10.4,10.4
		C343.1,397,338.5,401.7,332.7,401.7z M475.3,569.9c-51.1,0-92.4-41.4-92.4-92.4c0-51.1,41.4-92.4,92.4-92.4s92.4,41.4,92.4,92.4
		C567.9,528.4,526.4,569.9,475.3,569.9z M277.9,344.6v-11.1h311.8v11.1H277.9z"/>
</g>
</svg>
