<?xml version="1.0" encoding="utf-8"?>
<!-- Generator: Adobe Illustrator 21.1.0, SVG Export Plug-In . SVG Version: 6.00 Build 0)  -->
<svg version="1.1" id="Layer_1" xmlns="http://www.w3.org/2000/svg" xmlns:xlink="http://www.w3.org/1999/xlink" x="0px" y="0px"
	 viewBox="0 0 670.2 657" style="enable-background:new 0 0 670.2 657;" xml:space="preserve">
<style type="text/css">
	.st0{fill:#FFFFFF;}
</style>
<title>config</title>
<path class="st0" d="M552.7,116.2c-89-89-233.4-89-322.4,0c-72.8,72.8-86.1,182.6-39.8,268.9L54.2,521.4c-4.7,4.7-4.7,12.3,0,17
	l76.4,76.4c4.7,4.7,12.3,4.7,17,0l136.3-136.3c86.3,46.3,196.1,33,268.9-39.8C641.8,349.6,641.8,205.3,552.7,116.2z M263.9,405.1
	c-70.5-70.5-70.5-184.8,0-255.3c70.5-70.5,184.8-70.5,255.3,0s70.5,184.8,0,255.3C448.6,475.6,334.4,475.6,263.9,405.1z"/>
</svg>
